<svg xmlns="http://www.w3.org/2000/svg" viewBox="0 0 64 64">
  <defs>
    <linearGradient id="g" x1="0" y1="0" x2="1" y2="1">
      <stop offset="0%" stop-color="#0f172a" />
      <stop offset="100%" stop-color="#1f2937" />
    </linearGradient>
  </defs>
  <rect width="64" height="64" rx="16" fill="url(#g)" />
  <path
    d="M32 40a9 9 0 0 0 9-9V20a9 9 0 0 0-18 0v11a9 9 0 0 0 9 9Zm-3 6h6v6h-6zM20 31h4a8 8 0 0 0 16 0h4a12 12 0 0 1-10 11.82V46h-4v-3.18A12 12 0 0 1 20 31Z"
    fill="#f8fafc"
  />
</svg>
